M48
; DRILL file {KiCad 9.0.7} date 2026-03-12T11:42:16-0400
; FORMAT={-:-/ absolute / metric / decimal}
; #@! TF.CreationDate,2026-03-12T11:42:16-04:00
; #@! TF.GenerationSoftware,Kicad,Pcbnew,9.0.7
; #@! TF.FileFunction,Plated,1,2,PTH
FMAT,2
METRIC
; #@! TA.AperFunction,Plated,PTH,ComponentDrill
T1C0.800
; #@! TA.AperFunction,Plated,PTH,ComponentDrill
T2C0.813
; #@! TA.AperFunction,Plated,PTH,ComponentDrill
T3C0.900
; #@! TA.AperFunction,Plated,PTH,ComponentDrill
T4C1.000
; #@! TA.AperFunction,Plated,PTH,ComponentDrill
T5C1.092
%
G90
G05
T1
X141.34Y-90.5
X141.34Y-98.5
X141.42Y-82.5
X151.5Y-90.5
X151.5Y-98.5
X151.58Y-82.5
T2
X166.5Y-59.46
X166.5Y-64.54
X166.5Y-73.5
X166.5Y-78.58
X169.04Y-62.0
X169.04Y-76.04
T3
X132.47Y-90.5
X132.47Y-98.5
X132.55Y-82.5
X135.01Y-90.5
X135.01Y-98.5
X135.09Y-82.5
T4
X93.52Y-61.72
X93.52Y-64.26
X93.52Y-66.8
X93.52Y-69.34
X93.52Y-71.88
X93.52Y-74.42
X93.52Y-76.96
X93.52Y-79.5
X93.52Y-82.04
X93.52Y-84.58
X93.52Y-87.12
X93.52Y-89.66
X93.52Y-92.2
X93.52Y-94.74
X93.52Y-97.28
X93.52Y-99.82
X124.01Y-61.81
X124.01Y-64.35
X124.01Y-66.89
X124.01Y-69.43
X124.01Y-71.97
X124.01Y-74.51
X124.01Y-77.05
X124.01Y-79.59
X124.01Y-82.13
X124.01Y-84.67
X124.01Y-87.21
X124.01Y-89.75
X124.01Y-92.29
X124.01Y-94.83
X124.01Y-97.37
X124.01Y-99.91
X132.3Y-62.34
X132.3Y-64.88
X132.3Y-67.42
X132.3Y-69.96
X132.3Y-72.5
X132.3Y-75.04
X145.0Y-62.34
X145.0Y-64.88
X145.0Y-67.42
X145.0Y-69.96
X145.0Y-72.5
X145.0Y-75.04
T5
X163.387Y-102.5
X163.533Y-90.0
X168.467Y-102.5
X168.613Y-90.0
M30
