%TF.GenerationSoftware,KiCad,Pcbnew,9.0.7*%
%TF.CreationDate,2026-03-05T08:28:33-05:00*%
%TF.ProjectId,labo3-kicad,6c61626f-332d-46b6-9963-61642e6b6963,rev?*%
%TF.SameCoordinates,Original*%
%TF.FileFunction,Copper,L1,Top*%
%TF.FilePolarity,Positive*%
%FSLAX46Y46*%
G04 Gerber Fmt 4.6, Leading zero omitted, Abs format (unit mm)*
G04 Created by KiCad (PCBNEW 9.0.7) date 2026-03-05 08:28:33*
%MOMM*%
%LPD*%
G01*
G04 APERTURE LIST*
G04 Aperture macros list*
%AMRoundRect*
0 Rectangle with rounded corners*
0 $1 Rounding radius*
0 $2 $3 $4 $5 $6 $7 $8 $9 X,Y pos of 4 corners*
0 Add a 4 corners polygon primitive as box body*
4,1,4,$2,$3,$4,$5,$6,$7,$8,$9,$2,$3,0*
0 Add four circle primitives for the rounded corners*
1,1,$1+$1,$2,$3*
1,1,$1+$1,$4,$5*
1,1,$1+$1,$6,$7*
1,1,$1+$1,$8,$9*
0 Add four rect primitives between the rounded corners*
20,1,$1+$1,$2,$3,$4,$5,0*
20,1,$1+$1,$4,$5,$6,$7,0*
20,1,$1+$1,$6,$7,$8,$9,0*
20,1,$1+$1,$8,$9,$2,$3,0*%
G04 Aperture macros list end*
%TA.AperFunction,SMDPad,CuDef*%
%ADD10RoundRect,0.250000X-0.262500X-0.450000X0.262500X-0.450000X0.262500X0.450000X-0.262500X0.450000X0*%
%TD*%
%TA.AperFunction,ComponentPad*%
%ADD11R,2.030000X1.730000*%
%TD*%
%TA.AperFunction,ComponentPad*%
%ADD12O,2.030000X1.730000*%
%TD*%
%TA.AperFunction,SMDPad,CuDef*%
%ADD13RoundRect,0.243750X-0.243750X-0.456250X0.243750X-0.456250X0.243750X0.456250X-0.243750X0.456250X0*%
%TD*%
%TA.AperFunction,ViaPad*%
%ADD14C,0.600000*%
%TD*%
%TA.AperFunction,Conductor*%
%ADD15C,0.200000*%
%TD*%
G04 APERTURE END LIST*
D10*
%TO.P,R1,1*%
%TO.N,+3.3V*%
X110175000Y-62000000D03*
%TO.P,R1,2*%
%TO.N,Net-(D1-A)*%
X112000000Y-62000000D03*
%TD*%
D11*
%TO.P,J1,1,Pin_1*%
%TO.N,+3.3V*%
X94960000Y-62500000D03*
D12*
%TO.P,J1,2,Pin_2*%
%TO.N,unconnected-(J1-Pin_2-Pad2)*%
X94960000Y-65040000D03*
%TO.P,J1,3,Pin_3*%
%TO.N,GND*%
X94960000Y-67580000D03*
%TD*%
D13*
%TO.P,D1,1,K*%
%TO.N,GND*%
X109625000Y-76500000D03*
%TO.P,D1,2,A*%
%TO.N,Net-(D1-A)*%
X111500000Y-76500000D03*
%TD*%
D14*
%TO.N,GND*%
X118500000Y-62000000D03*
X94500000Y-75000000D03*
X85500000Y-77000000D03*
X82500000Y-71000000D03*
X82500000Y-65500000D03*
X98500000Y-82000000D03*
X108000000Y-82000000D03*
X116500000Y-82000000D03*
X126000000Y-76500000D03*
X126000000Y-68000000D03*
X120500000Y-57000000D03*
X113500000Y-57500000D03*
X105000000Y-57000000D03*
X96000000Y-57000000D03*
X89500000Y-81500000D03*
X125500000Y-82000000D03*
X125500000Y-57500000D03*
X88500000Y-57000000D03*
%TD*%
D15*
%TO.N,GND*%
X100705000Y-67580000D02*
X109625000Y-76500000D01*
X94960000Y-67580000D02*
X100705000Y-67580000D01*
%TO.N,Net-(D1-A)*%
X112000000Y-62000000D02*
X112000000Y-76000000D01*
X112000000Y-76000000D02*
X111500000Y-76500000D01*
%TO.N,+3.3V*%
X110175000Y-62000000D02*
X95460000Y-62000000D01*
X95460000Y-62000000D02*
X94960000Y-62500000D01*
%TD*%
%TA.AperFunction,Conductor*%
%TO.N,GND*%
G36*
X134958691Y-53519407D02*
G01*
X134994655Y-53568907D01*
X134999500Y-53599500D01*
X134999500Y-85900500D01*
X134980593Y-85958691D01*
X134931093Y-85994655D01*
X134900500Y-85999500D01*
X78599500Y-85999500D01*
X78541309Y-85980593D01*
X78505345Y-85931093D01*
X78500500Y-85900500D01*
X78500500Y-82368879D01*
X79999500Y-82368879D01*
X79999500Y-82631120D01*
X80030802Y-82868881D01*
X80033730Y-82891116D01*
X80098038Y-83131119D01*
X80101600Y-83144411D01*
X80101604Y-83144424D01*
X80201953Y-83386689D01*
X80201955Y-83386693D01*
X80201957Y-83386697D01*
X80279860Y-83521630D01*
X80333075Y-83613802D01*
X80356572Y-83644424D01*
X80492718Y-83821851D01*
X80678149Y-84007282D01*
X80886197Y-84166924D01*
X81113303Y-84298043D01*
X81355581Y-84398398D01*
X81608884Y-84466270D01*
X81868880Y-84500500D01*
X81868881Y-84500500D01*
X82131119Y-84500500D01*
X82131120Y-84500500D01*
X82391116Y-84466270D01*
X82644419Y-84398398D01*
X82886697Y-84298043D01*
X83113803Y-84166924D01*
X83321851Y-84007282D01*
X83507282Y-83821851D01*
X83666924Y-83613803D01*
X83798043Y-83386697D01*
X83898398Y-83144419D01*
X83966270Y-82891116D01*
X83969197Y-82868880D01*
X129999500Y-82868880D01*
X129999500Y-83131120D01*
X130033730Y-83391116D01*
X130093398Y-83613802D01*
X130101600Y-83644411D01*
X130101604Y-83644424D01*
X130201953Y-83886689D01*
X130201955Y-83886693D01*
X130201957Y-83886697D01*
X130333076Y-84113803D01*
X130492718Y-84321851D01*
X130678149Y-84507282D01*
X130886197Y-84666924D01*
X131113303Y-84798043D01*
X131355581Y-84898398D01*
X131608884Y-84966270D01*
X131868880Y-85000500D01*
X131868881Y-85000500D01*
X132131119Y-85000500D01*
X132131120Y-85000500D01*
X132391116Y-84966270D01*
X132644419Y-84898398D01*
X132886697Y-84798043D01*
X133113803Y-84666924D01*
X133321851Y-84507282D01*
X133507282Y-84321851D01*
X133666924Y-84113803D01*
X133798043Y-83886697D01*
X133898398Y-83644419D01*
X133966270Y-83391116D01*
X134000500Y-83131120D01*
X134000500Y-82868880D01*
X133966270Y-82608884D01*
X133898398Y-82355581D01*
X133798043Y-82113303D01*
X133666924Y-81886197D01*
X133507282Y-81678149D01*
X133321851Y-81492718D01*
X133113803Y-81333076D01*
X133113804Y-81333076D01*
X133113802Y-81333075D01*
X133021630Y-81279860D01*
X132886697Y-81201957D01*
X132886693Y-81201955D01*
X132886689Y-81201953D01*
X132644424Y-81101604D01*
X132644423Y-81101603D01*
X132644419Y-81101602D01*
X132391116Y-81033730D01*
X132391111Y-81033729D01*
X132391110Y-81033729D01*
X132131120Y-80999500D01*
X131868880Y-80999500D01*
X131868879Y-80999500D01*
X131608889Y-81033729D01*
X131608886Y-81033729D01*
X131608884Y-81033730D01*
X131423464Y-81083412D01*
X131355588Y-81101600D01*
X131355575Y-81101604D01*
X131113310Y-81201953D01*
X130886197Y-81333075D01*
X130678152Y-81492715D01*
X130492715Y-81678152D01*
X130333075Y-81886197D01*
X130201953Y-82113310D01*
X130101604Y-82355575D01*
X130101600Y-82355588D01*
X130033729Y-82608889D01*
X130001628Y-82852715D01*
X129999500Y-82868880D01*
X83969197Y-82868880D01*
X84000500Y-82631120D01*
X84000500Y-82368880D01*
X83966270Y-82108884D01*
X83898398Y-81855581D01*
X83798043Y-81613303D01*
X83666924Y-81386197D01*
X83507282Y-81178149D01*
X83321851Y-80992718D01*
X83113803Y-80833076D01*
X83113804Y-80833076D01*
X83113802Y-80833075D01*
X83021630Y-80779860D01*
X82886697Y-80701957D01*
X82886693Y-80701955D01*
X82886689Y-80701953D01*
X82644424Y-80601604D01*
X82644423Y-80601603D01*
X82644419Y-80601602D01*
X82391116Y-80533730D01*
X82391111Y-80533729D01*
X82391110Y-80533729D01*
X82131120Y-80499500D01*
X81868880Y-80499500D01*
X81868879Y-80499500D01*
X81608889Y-80533729D01*
X81608886Y-80533729D01*
X81608884Y-80533730D01*
X81423464Y-80583412D01*
X81355588Y-80601600D01*
X81355575Y-80601604D01*
X81113310Y-80701953D01*
X80886197Y-80833075D01*
X80678152Y-80992715D01*
X80492715Y-81178152D01*
X80333075Y-81386197D01*
X80201953Y-81613310D01*
X80101604Y-81855575D01*
X80101600Y-81855588D01*
X80033729Y-82108889D01*
X79999500Y-82368879D01*
X78500500Y-82368879D01*
X78500500Y-76750001D01*
X108637500Y-76750001D01*
X108637500Y-77005816D01*
X108647906Y-77107670D01*
X108702595Y-77272712D01*
X108793868Y-77420688D01*
X108916811Y-77543631D01*
X109064787Y-77634904D01*
X109229829Y-77689593D01*
X109331684Y-77700000D01*
X109374999Y-77700000D01*
X109375000Y-77699999D01*
X109375000Y-76750001D01*
X109374999Y-76750000D01*
X108637501Y-76750000D01*
X108637500Y-76750001D01*
X78500500Y-76750001D01*
X78500500Y-75994183D01*
X108637500Y-75994183D01*
X108637500Y-76249999D01*
X108637501Y-76250000D01*
X109374999Y-76250000D01*
X109375000Y-76249999D01*
X109375000Y-75300001D01*
X109875000Y-75300001D01*
X109875000Y-77699999D01*
X109875001Y-77700000D01*
X109918316Y-77700000D01*
X110020170Y-77689593D01*
X110185212Y-77634904D01*
X110333188Y-77543631D01*
X110456131Y-77420688D01*
X110547404Y-77272712D01*
X110575023Y-77189363D01*
X110611274Y-77140073D01*
X110669574Y-77121505D01*
X110727653Y-77140750D01*
X110761095Y-77184183D01*
X110777388Y-77225499D01*
X110777389Y-77225500D01*
X110867789Y-77344711D01*
X110987000Y-77435111D01*
X110987001Y-77435111D01*
X110987001Y-77435112D01*
X111090180Y-77475800D01*
X111126179Y-77489997D01*
X111213640Y-77500500D01*
X111213642Y-77500500D01*
X111786358Y-77500500D01*
X111786360Y-77500500D01*
X111873821Y-77489997D01*
X111977001Y-77449307D01*
X112012998Y-77435112D01*
X112012998Y-77435111D01*
X112013000Y-77435111D01*
X112132211Y-77344711D01*
X112222611Y-77225500D01*
X112277497Y-77086321D01*
X112288000Y-76998860D01*
X112288000Y-76319400D01*
X112304161Y-76265190D01*
X112309761Y-76256631D01*
X112320480Y-76245913D01*
X112346843Y-76200250D01*
X112373207Y-76154588D01*
X112400500Y-76052727D01*
X112400500Y-75947273D01*
X112400500Y-63054717D01*
X112419407Y-62996526D01*
X112463180Y-62962620D01*
X112534842Y-62934361D01*
X112655422Y-62842922D01*
X112746861Y-62722342D01*
X112802377Y-62581564D01*
X112813000Y-62493102D01*
X112813000Y-61506898D01*
X112802377Y-61418436D01*
X112746861Y-61277658D01*
X112655422Y-61157078D01*
X112534842Y-61065639D01*
X112534841Y-61065638D01*
X112534839Y-61065637D01*
X112394065Y-61010123D01*
X112305606Y-60999500D01*
X112305602Y-60999500D01*
X111694398Y-60999500D01*
X111694393Y-60999500D01*
X111605934Y-61010123D01*
X111465160Y-61065637D01*
X111465156Y-61065640D01*
X111344581Y-61157075D01*
X111344575Y-61157081D01*
X111253140Y-61277656D01*
X111253137Y-61277660D01*
X111197623Y-61418434D01*
X111187000Y-61506893D01*
X111187000Y-62493106D01*
X111197623Y-62581565D01*
X111253137Y-62722339D01*
X111253138Y-62722341D01*
X111253139Y-62722342D01*
X111344578Y-62842922D01*
X111465158Y-62934361D01*
X111536819Y-62962620D01*
X111584016Y-63001556D01*
X111599500Y-63054717D01*
X111599500Y-75400500D01*
X111580593Y-75458691D01*
X111531093Y-75494655D01*
X111500500Y-75499500D01*
X111213635Y-75499500D01*
X111126177Y-75510003D01*
X110987001Y-75564887D01*
X110987001Y-75564888D01*
X110867792Y-75655286D01*
X110867786Y-75655292D01*
X110777388Y-75774500D01*
X110761095Y-75815816D01*
X110722157Y-75863013D01*
X110662915Y-75878309D01*
X110605996Y-75855862D01*
X110575023Y-75810636D01*
X110547404Y-75727287D01*
X110456131Y-75579311D01*
X110333188Y-75456368D01*
X110185212Y-75365095D01*
X110020170Y-75310406D01*
X109918316Y-75300000D01*
X109875001Y-75300000D01*
X109875000Y-75300001D01*
X109375000Y-75300001D01*
X109374999Y-75300000D01*
X109331684Y-75300000D01*
X109229829Y-75310406D01*
X109064787Y-75365095D01*
X108916811Y-75456368D01*
X108793868Y-75579311D01*
X108702595Y-75727287D01*
X108647906Y-75892329D01*
X108637500Y-75994183D01*
X78500500Y-75994183D01*
X78500500Y-67329999D01*
X93467580Y-67329999D01*
X93467581Y-67330000D01*
X94515440Y-67330000D01*
X94484755Y-67383147D01*
X94450000Y-67512857D01*
X94450000Y-67647143D01*
X94484755Y-67776853D01*
X94515440Y-67830000D01*
X93467580Y-67830000D01*
X93478609Y-67899633D01*
X93545005Y-68103978D01*
X93642545Y-68295413D01*
X93768835Y-68469236D01*
X93920763Y-68621164D01*
X94094586Y-68747454D01*
X94286021Y-68844994D01*
X94490366Y-68911390D01*
X94702569Y-68945000D01*
X94709999Y-68945000D01*
X94710000Y-68944999D01*
X94710000Y-68024560D01*
X94763147Y-68055245D01*
X94892857Y-68090000D01*
X95027143Y-68090000D01*
X95156853Y-68055245D01*
X95210000Y-68024560D01*
X95210000Y-68944999D01*
X95210001Y-68945000D01*
X95217431Y-68945000D01*
X95429633Y-68911390D01*
X95633978Y-68844994D01*
X95825413Y-68747454D01*
X95999236Y-68621164D01*
X96151164Y-68469236D01*
X96277454Y-68295413D01*
X96374994Y-68103978D01*
X96441390Y-67899633D01*
X96452419Y-67830000D01*
X95404560Y-67830000D01*
X95435245Y-67776853D01*
X95470000Y-67647143D01*
X95470000Y-67512857D01*
X95435245Y-67383147D01*
X95404560Y-67330000D01*
X96452419Y-67330000D01*
X96452419Y-67329999D01*
X96441390Y-67260366D01*
X96374994Y-67056021D01*
X96277454Y-66864586D01*
X96151164Y-66690763D01*
X95999236Y-66538835D01*
X95825413Y-66412545D01*
X95633978Y-66315005D01*
X95580965Y-66297780D01*
X95531465Y-66261816D01*
X95512558Y-66203625D01*
X95531465Y-66145434D01*
X95566613Y-66115415D01*
X95720855Y-66036825D01*
X95869272Y-65928994D01*
X95998994Y-65799272D01*
X96106825Y-65650855D01*
X96190111Y-65487397D01*
X96190112Y-65487392D01*
X96190114Y-65487390D01*
X96246801Y-65312927D01*
X96246802Y-65312923D01*
X96275500Y-65131730D01*
X96275500Y-64948269D01*
X96246802Y-64767076D01*
X96246801Y-64767072D01*
X96190114Y-64592609D01*
X96190112Y-64592606D01*
X96190111Y-64592605D01*
X96190111Y-64592603D01*
X96106825Y-64429145D01*
X95998994Y-64280728D01*
X95869272Y-64151006D01*
X95720855Y-64043175D01*
X95720854Y-64043174D01*
X95720852Y-64043173D01*
X95557393Y-63959887D01*
X95557390Y-63959885D01*
X95382927Y-63903198D01*
X95382923Y-63903197D01*
X95201730Y-63874500D01*
X95201727Y-63874500D01*
X94718273Y-63874500D01*
X94718270Y-63874500D01*
X94537076Y-63903197D01*
X94537072Y-63903198D01*
X94362609Y-63959885D01*
X94362606Y-63959887D01*
X94199147Y-64043173D01*
X94050729Y-64151005D01*
X93921005Y-64280729D01*
X93813173Y-64429147D01*
X93729887Y-64592606D01*
X93729885Y-64592609D01*
X93673198Y-64767072D01*
X93673197Y-64767076D01*
X93644500Y-64948269D01*
X93644500Y-65131730D01*
X93673197Y-65312923D01*
X93673198Y-65312927D01*
X93729885Y-65487390D01*
X93729887Y-65487393D01*
X93729888Y-65487396D01*
X93729889Y-65487397D01*
X93813175Y-65650855D01*
X93921006Y-65799272D01*
X94050728Y-65928994D01*
X94199145Y-66036825D01*
X94199147Y-66036826D01*
X94353386Y-66115415D01*
X94396651Y-66158680D01*
X94406222Y-66219112D01*
X94378444Y-66273629D01*
X94339034Y-66297779D01*
X94286028Y-66315001D01*
X94286025Y-66315003D01*
X94094586Y-66412545D01*
X93920763Y-66538835D01*
X93768835Y-66690763D01*
X93642545Y-66864586D01*
X93545005Y-67056021D01*
X93478609Y-67260366D01*
X93467580Y-67329999D01*
X78500500Y-67329999D01*
X78500500Y-61590130D01*
X93644500Y-61590130D01*
X93644500Y-63409860D01*
X93644501Y-63409863D01*
X93647414Y-63434990D01*
X93672756Y-63492385D01*
X93692794Y-63537765D01*
X93772235Y-63617206D01*
X93875009Y-63662585D01*
X93900135Y-63665500D01*
X96019864Y-63665499D01*
X96044991Y-63662585D01*
X96147765Y-63617206D01*
X96227206Y-63537765D01*
X96272585Y-63434991D01*
X96275500Y-63409865D01*
X96275499Y-62499499D01*
X96294406Y-62441309D01*
X96343906Y-62405345D01*
X96374499Y-62400500D01*
X109263206Y-62400500D01*
X109321397Y-62419407D01*
X109357361Y-62468907D01*
X109361384Y-62490195D01*
X109361647Y-62490164D01*
X109372623Y-62581565D01*
X109428137Y-62722339D01*
X109428138Y-62722341D01*
X109428139Y-62722342D01*
X109519578Y-62842922D01*
X109640158Y-62934361D01*
X109640159Y-62934361D01*
X109640160Y-62934362D01*
X109710547Y-62962119D01*
X109780936Y-62989877D01*
X109869398Y-63000500D01*
X109869400Y-63000500D01*
X110480600Y-63000500D01*
X110480602Y-63000500D01*
X110569064Y-62989877D01*
X110709842Y-62934361D01*
X110830422Y-62842922D01*
X110921861Y-62722342D01*
X110977377Y-62581564D01*
X110988000Y-62493102D01*
X110988000Y-61506898D01*
X110977377Y-61418436D01*
X110921861Y-61277658D01*
X110830422Y-61157078D01*
X110709842Y-61065639D01*
X110709841Y-61065638D01*
X110709839Y-61065637D01*
X110569065Y-61010123D01*
X110480606Y-60999500D01*
X110480602Y-60999500D01*
X109869398Y-60999500D01*
X109869393Y-60999500D01*
X109780934Y-61010123D01*
X109640160Y-61065637D01*
X109640156Y-61065640D01*
X109519581Y-61157075D01*
X109519575Y-61157081D01*
X109428140Y-61277656D01*
X109428137Y-61277660D01*
X109372623Y-61418434D01*
X109361647Y-61509836D01*
X109360721Y-61509724D01*
X109339697Y-61563350D01*
X109288146Y-61596307D01*
X109263206Y-61599500D01*
X96352323Y-61599500D01*
X96294132Y-61580593D01*
X96261759Y-61540489D01*
X96227206Y-61462236D01*
X96227206Y-61462235D01*
X96147765Y-61382794D01*
X96044991Y-61337415D01*
X96044990Y-61337414D01*
X96044988Y-61337414D01*
X96019868Y-61334500D01*
X93900139Y-61334500D01*
X93900136Y-61334501D01*
X93875009Y-61337414D01*
X93772235Y-61382794D01*
X93692794Y-61462235D01*
X93647414Y-61565011D01*
X93644500Y-61590130D01*
X78500500Y-61590130D01*
X78500500Y-58868880D01*
X80499500Y-58868880D01*
X80499500Y-59131120D01*
X80533730Y-59391116D01*
X80601600Y-59644411D01*
X80601604Y-59644424D01*
X80701953Y-59886689D01*
X80701955Y-59886693D01*
X80701957Y-59886697D01*
X80833076Y-60113803D01*
X80992718Y-60321851D01*
X81178149Y-60507282D01*
X81386197Y-60666924D01*
X81613303Y-60798043D01*
X81855581Y-60898398D01*
X82108884Y-60966270D01*
X82368880Y-61000500D01*
X82368881Y-61000500D01*
X82631119Y-61000500D01*
X82631120Y-61000500D01*
X82891116Y-60966270D01*
X83144419Y-60898398D01*
X83386697Y-60798043D01*
X83613803Y-60666924D01*
X83821851Y-60507282D01*
X84007282Y-60321851D01*
X84166924Y-60113803D01*
X84298043Y-59886697D01*
X84398398Y-59644419D01*
X84466270Y-59391116D01*
X84500500Y-59131120D01*
X84500500Y-58868880D01*
X128499500Y-58868880D01*
X128499500Y-59131120D01*
X128533730Y-59391116D01*
X128601600Y-59644411D01*
X128601604Y-59644424D01*
X128701953Y-59886689D01*
X128701955Y-59886693D01*
X128701957Y-59886697D01*
X128833076Y-60113803D01*
X128992718Y-60321851D01*
X129178149Y-60507282D01*
X129386197Y-60666924D01*
X129613303Y-60798043D01*
X129855581Y-60898398D01*
X130108884Y-60966270D01*
X130368880Y-61000500D01*
X130368881Y-61000500D01*
X130631119Y-61000500D01*
X130631120Y-61000500D01*
X130891116Y-60966270D01*
X131144419Y-60898398D01*
X131386697Y-60798043D01*
X131613803Y-60666924D01*
X131821851Y-60507282D01*
X132007282Y-60321851D01*
X132166924Y-60113803D01*
X132298043Y-59886697D01*
X132398398Y-59644419D01*
X132466270Y-59391116D01*
X132500500Y-59131120D01*
X132500500Y-58868880D01*
X132466270Y-58608884D01*
X132398398Y-58355581D01*
X132298043Y-58113303D01*
X132166924Y-57886197D01*
X132007282Y-57678149D01*
X131821851Y-57492718D01*
X131613803Y-57333076D01*
X131613804Y-57333076D01*
X131613802Y-57333075D01*
X131521630Y-57279860D01*
X131386697Y-57201957D01*
X131386693Y-57201955D01*
X131386689Y-57201953D01*
X131144424Y-57101604D01*
X131144423Y-57101603D01*
X131144419Y-57101602D01*
X130891116Y-57033730D01*
X130891111Y-57033729D01*
X130891110Y-57033729D01*
X130631120Y-56999500D01*
X130368880Y-56999500D01*
X130368879Y-56999500D01*
X130108889Y-57033729D01*
X130108886Y-57033729D01*
X130108884Y-57033730D01*
X129923464Y-57083412D01*
X129855588Y-57101600D01*
X129855575Y-57101604D01*
X129613310Y-57201953D01*
X129386197Y-57333075D01*
X129178152Y-57492715D01*
X128992715Y-57678152D01*
X128833075Y-57886197D01*
X128701953Y-58113310D01*
X128601604Y-58355575D01*
X128601602Y-58355581D01*
X128533730Y-58608884D01*
X128499500Y-58868880D01*
X84500500Y-58868880D01*
X84466270Y-58608884D01*
X84398398Y-58355581D01*
X84298043Y-58113303D01*
X84166924Y-57886197D01*
X84007282Y-57678149D01*
X83821851Y-57492718D01*
X83613803Y-57333076D01*
X83613804Y-57333076D01*
X83613802Y-57333075D01*
X83521630Y-57279860D01*
X83386697Y-57201957D01*
X83386693Y-57201955D01*
X83386689Y-57201953D01*
X83144424Y-57101604D01*
X83144423Y-57101603D01*
X83144419Y-57101602D01*
X82891116Y-57033730D01*
X82891111Y-57033729D01*
X82891110Y-57033729D01*
X82631120Y-56999500D01*
X82368880Y-56999500D01*
X82368879Y-56999500D01*
X82108889Y-57033729D01*
X82108886Y-57033729D01*
X82108884Y-57033730D01*
X81923464Y-57083412D01*
X81855588Y-57101600D01*
X81855575Y-57101604D01*
X81613310Y-57201953D01*
X81386197Y-57333075D01*
X81178152Y-57492715D01*
X80992715Y-57678152D01*
X80833075Y-57886197D01*
X80701953Y-58113310D01*
X80601604Y-58355575D01*
X80601602Y-58355581D01*
X80533730Y-58608884D01*
X80499500Y-58868880D01*
X78500500Y-58868880D01*
X78500500Y-53599500D01*
X78519407Y-53541309D01*
X78568907Y-53505345D01*
X78599500Y-53500500D01*
X134900500Y-53500500D01*
X134958691Y-53519407D01*
G37*
%TD.AperFunction*%
%TD*%
M02*
