%TF.GenerationSoftware,KiCad,Pcbnew,9.0.7*%
%TF.CreationDate,2026-03-05T08:28:34-05:00*%
%TF.ProjectId,labo3-kicad,6c61626f-332d-46b6-9963-61642e6b6963,rev?*%
%TF.SameCoordinates,Original*%
%TF.FileFunction,Legend,Top*%
%TF.FilePolarity,Positive*%
%FSLAX46Y46*%
G04 Gerber Fmt 4.6, Leading zero omitted, Abs format (unit mm)*
G04 Created by KiCad (PCBNEW 9.0.7) date 2026-03-05 08:28:34*
%MOMM*%
%LPD*%
G01*
G04 APERTURE LIST*
%ADD10C,0.150000*%
%ADD11C,0.120000*%
G04 APERTURE END LIST*
D10*
X129166666Y-55004819D02*
X128833333Y-54528628D01*
X128595238Y-55004819D02*
X128595238Y-54004819D01*
X128595238Y-54004819D02*
X128976190Y-54004819D01*
X128976190Y-54004819D02*
X129071428Y-54052438D01*
X129071428Y-54052438D02*
X129119047Y-54100057D01*
X129119047Y-54100057D02*
X129166666Y-54195295D01*
X129166666Y-54195295D02*
X129166666Y-54338152D01*
X129166666Y-54338152D02*
X129119047Y-54433390D01*
X129119047Y-54433390D02*
X129071428Y-54481009D01*
X129071428Y-54481009D02*
X128976190Y-54528628D01*
X128976190Y-54528628D02*
X128595238Y-54528628D01*
X129595238Y-54481009D02*
X129928571Y-54481009D01*
X130071428Y-55004819D02*
X129595238Y-55004819D01*
X129595238Y-55004819D02*
X129595238Y-54004819D01*
X129595238Y-54004819D02*
X130071428Y-54004819D01*
X130833333Y-54481009D02*
X130500000Y-54481009D01*
X130500000Y-55004819D02*
X130500000Y-54004819D01*
X130500000Y-54004819D02*
X130976190Y-54004819D01*
X131500000Y-54004819D02*
X131500000Y-54242914D01*
X131261905Y-54147676D02*
X131500000Y-54242914D01*
X131500000Y-54242914D02*
X131738095Y-54147676D01*
X131357143Y-54433390D02*
X131500000Y-54242914D01*
X131500000Y-54242914D02*
X131642857Y-54433390D01*
X132261905Y-54004819D02*
X132261905Y-54242914D01*
X132023810Y-54147676D02*
X132261905Y-54242914D01*
X132261905Y-54242914D02*
X132500000Y-54147676D01*
X132119048Y-54433390D02*
X132261905Y-54242914D01*
X132261905Y-54242914D02*
X132404762Y-54433390D01*
X130666666Y-79004819D02*
X130333333Y-78528628D01*
X130095238Y-79004819D02*
X130095238Y-78004819D01*
X130095238Y-78004819D02*
X130476190Y-78004819D01*
X130476190Y-78004819D02*
X130571428Y-78052438D01*
X130571428Y-78052438D02*
X130619047Y-78100057D01*
X130619047Y-78100057D02*
X130666666Y-78195295D01*
X130666666Y-78195295D02*
X130666666Y-78338152D01*
X130666666Y-78338152D02*
X130619047Y-78433390D01*
X130619047Y-78433390D02*
X130571428Y-78481009D01*
X130571428Y-78481009D02*
X130476190Y-78528628D01*
X130476190Y-78528628D02*
X130095238Y-78528628D01*
X131095238Y-78481009D02*
X131428571Y-78481009D01*
X131571428Y-79004819D02*
X131095238Y-79004819D01*
X131095238Y-79004819D02*
X131095238Y-78004819D01*
X131095238Y-78004819D02*
X131571428Y-78004819D01*
X132333333Y-78481009D02*
X132000000Y-78481009D01*
X132000000Y-79004819D02*
X132000000Y-78004819D01*
X132000000Y-78004819D02*
X132476190Y-78004819D01*
X133000000Y-78004819D02*
X133000000Y-78242914D01*
X132761905Y-78147676D02*
X133000000Y-78242914D01*
X133000000Y-78242914D02*
X133238095Y-78147676D01*
X132857143Y-78433390D02*
X133000000Y-78242914D01*
X133000000Y-78242914D02*
X133142857Y-78433390D01*
X133761905Y-78004819D02*
X133761905Y-78242914D01*
X133523810Y-78147676D02*
X133761905Y-78242914D01*
X133761905Y-78242914D02*
X134000000Y-78147676D01*
X133619048Y-78433390D02*
X133761905Y-78242914D01*
X133761905Y-78242914D02*
X133904762Y-78433390D01*
X80666666Y-78504819D02*
X80333333Y-78028628D01*
X80095238Y-78504819D02*
X80095238Y-77504819D01*
X80095238Y-77504819D02*
X80476190Y-77504819D01*
X80476190Y-77504819D02*
X80571428Y-77552438D01*
X80571428Y-77552438D02*
X80619047Y-77600057D01*
X80619047Y-77600057D02*
X80666666Y-77695295D01*
X80666666Y-77695295D02*
X80666666Y-77838152D01*
X80666666Y-77838152D02*
X80619047Y-77933390D01*
X80619047Y-77933390D02*
X80571428Y-77981009D01*
X80571428Y-77981009D02*
X80476190Y-78028628D01*
X80476190Y-78028628D02*
X80095238Y-78028628D01*
X81095238Y-77981009D02*
X81428571Y-77981009D01*
X81571428Y-78504819D02*
X81095238Y-78504819D01*
X81095238Y-78504819D02*
X81095238Y-77504819D01*
X81095238Y-77504819D02*
X81571428Y-77504819D01*
X82333333Y-77981009D02*
X82000000Y-77981009D01*
X82000000Y-78504819D02*
X82000000Y-77504819D01*
X82000000Y-77504819D02*
X82476190Y-77504819D01*
X83000000Y-77504819D02*
X83000000Y-77742914D01*
X82761905Y-77647676D02*
X83000000Y-77742914D01*
X83000000Y-77742914D02*
X83238095Y-77647676D01*
X82857143Y-77933390D02*
X83000000Y-77742914D01*
X83000000Y-77742914D02*
X83142857Y-77933390D01*
X83761905Y-77504819D02*
X83761905Y-77742914D01*
X83523810Y-77647676D02*
X83761905Y-77742914D01*
X83761905Y-77742914D02*
X84000000Y-77647676D01*
X83619048Y-77933390D02*
X83761905Y-77742914D01*
X83761905Y-77742914D02*
X83904762Y-77933390D01*
X81166666Y-55004819D02*
X80833333Y-54528628D01*
X80595238Y-55004819D02*
X80595238Y-54004819D01*
X80595238Y-54004819D02*
X80976190Y-54004819D01*
X80976190Y-54004819D02*
X81071428Y-54052438D01*
X81071428Y-54052438D02*
X81119047Y-54100057D01*
X81119047Y-54100057D02*
X81166666Y-54195295D01*
X81166666Y-54195295D02*
X81166666Y-54338152D01*
X81166666Y-54338152D02*
X81119047Y-54433390D01*
X81119047Y-54433390D02*
X81071428Y-54481009D01*
X81071428Y-54481009D02*
X80976190Y-54528628D01*
X80976190Y-54528628D02*
X80595238Y-54528628D01*
X81595238Y-54481009D02*
X81928571Y-54481009D01*
X82071428Y-55004819D02*
X81595238Y-55004819D01*
X81595238Y-55004819D02*
X81595238Y-54004819D01*
X81595238Y-54004819D02*
X82071428Y-54004819D01*
X82833333Y-54481009D02*
X82500000Y-54481009D01*
X82500000Y-55004819D02*
X82500000Y-54004819D01*
X82500000Y-54004819D02*
X82976190Y-54004819D01*
X83500000Y-54004819D02*
X83500000Y-54242914D01*
X83261905Y-54147676D02*
X83500000Y-54242914D01*
X83500000Y-54242914D02*
X83738095Y-54147676D01*
X83357143Y-54433390D02*
X83500000Y-54242914D01*
X83500000Y-54242914D02*
X83642857Y-54433390D01*
X84261905Y-54004819D02*
X84261905Y-54242914D01*
X84023810Y-54147676D02*
X84261905Y-54242914D01*
X84261905Y-54242914D02*
X84500000Y-54147676D01*
X84119048Y-54433390D02*
X84261905Y-54242914D01*
X84261905Y-54242914D02*
X84404762Y-54433390D01*
X110920833Y-60804819D02*
X110587500Y-60328628D01*
X110349405Y-60804819D02*
X110349405Y-59804819D01*
X110349405Y-59804819D02*
X110730357Y-59804819D01*
X110730357Y-59804819D02*
X110825595Y-59852438D01*
X110825595Y-59852438D02*
X110873214Y-59900057D01*
X110873214Y-59900057D02*
X110920833Y-59995295D01*
X110920833Y-59995295D02*
X110920833Y-60138152D01*
X110920833Y-60138152D02*
X110873214Y-60233390D01*
X110873214Y-60233390D02*
X110825595Y-60281009D01*
X110825595Y-60281009D02*
X110730357Y-60328628D01*
X110730357Y-60328628D02*
X110349405Y-60328628D01*
X111873214Y-60804819D02*
X111301786Y-60804819D01*
X111587500Y-60804819D02*
X111587500Y-59804819D01*
X111587500Y-59804819D02*
X111492262Y-59947676D01*
X111492262Y-59947676D02*
X111397024Y-60042914D01*
X111397024Y-60042914D02*
X111301786Y-60090533D01*
X97814819Y-65333333D02*
X98529104Y-65333333D01*
X98529104Y-65333333D02*
X98671961Y-65380952D01*
X98671961Y-65380952D02*
X98767200Y-65476190D01*
X98767200Y-65476190D02*
X98814819Y-65619047D01*
X98814819Y-65619047D02*
X98814819Y-65714285D01*
X98814819Y-64333333D02*
X98814819Y-64904761D01*
X98814819Y-64619047D02*
X97814819Y-64619047D01*
X97814819Y-64619047D02*
X97957676Y-64714285D01*
X97957676Y-64714285D02*
X98052914Y-64809523D01*
X98052914Y-64809523D02*
X98100533Y-64904761D01*
X109824405Y-75304819D02*
X109824405Y-74304819D01*
X109824405Y-74304819D02*
X110062500Y-74304819D01*
X110062500Y-74304819D02*
X110205357Y-74352438D01*
X110205357Y-74352438D02*
X110300595Y-74447676D01*
X110300595Y-74447676D02*
X110348214Y-74542914D01*
X110348214Y-74542914D02*
X110395833Y-74733390D01*
X110395833Y-74733390D02*
X110395833Y-74876247D01*
X110395833Y-74876247D02*
X110348214Y-75066723D01*
X110348214Y-75066723D02*
X110300595Y-75161961D01*
X110300595Y-75161961D02*
X110205357Y-75257200D01*
X110205357Y-75257200D02*
X110062500Y-75304819D01*
X110062500Y-75304819D02*
X109824405Y-75304819D01*
X111348214Y-75304819D02*
X110776786Y-75304819D01*
X111062500Y-75304819D02*
X111062500Y-74304819D01*
X111062500Y-74304819D02*
X110967262Y-74447676D01*
X110967262Y-74447676D02*
X110872024Y-74542914D01*
X110872024Y-74542914D02*
X110776786Y-74590533D01*
D11*
%TO.C,R1*%
X110860436Y-61265000D02*
X111314564Y-61265000D01*
X110860436Y-62735000D02*
X111314564Y-62735000D01*
%TO.C,J1*%
X97610000Y-61150000D02*
X97610000Y-68950000D01*
X91560000Y-61150000D02*
X97610000Y-61150000D01*
X92670000Y-62500000D02*
X92670000Y-67580000D01*
X91660000Y-62500000D02*
X92670000Y-62500000D01*
X92670000Y-67580000D02*
X91660000Y-67580000D01*
X97610000Y-68950000D02*
X91560000Y-68950000D01*
X91560000Y-68950000D02*
X91560000Y-61150000D01*
%TO.C,D1*%
X108877500Y-75540000D02*
X108877500Y-77460000D01*
X108877500Y-77460000D02*
X111562500Y-77460000D01*
X111562500Y-75540000D02*
X108877500Y-75540000D01*
%TD*%
M02*
